<mxfile host="app.diagrams.net" modified="2022-07-22T07:50:46.309Z" agent="5.0 (Windows NT 10.0; Win64; x64) AppleWebKit/537.36 (KHTML, like Gecko) Chrome/103.0.5060.114 Safari/537.36" etag="xprOk5aCPBpmCCp5PbZI" version="20.1.4" type="github">
  <diagram id="6a731a19-8d31-9384-78a2-239565b7b9f0" name="Page-1">
    <mxGraphModel dx="1422" dy="794" grid="1" gridSize="10" guides="1" tooltips="1" connect="1" arrows="1" fold="1" page="1" pageScale="1" pageWidth="1169" pageHeight="827" background="none" math="0" shadow="0">
      <root>
        <mxCell id="0" />
        <mxCell id="1" parent="0" />
        <mxCell id="2" value="start" style="shape=mxgraph.flowchart.terminator;strokeWidth=2;gradientColor=none;gradientDirection=north;fontStyle=0;html=1;" parent="1" vertex="1">
          <mxGeometry x="260" y="60" width="120" height="30" as="geometry" />
        </mxCell>
        <mxCell id="bonZeFb8oqKkXH8bP1l1-66" style="edgeStyle=orthogonalEdgeStyle;rounded=0;orthogonalLoop=1;jettySize=auto;html=1;exitX=0.5;exitY=1;exitDx=0;exitDy=0;exitPerimeter=0;" edge="1" parent="1" source="3" target="bonZeFb8oqKkXH8bP1l1-56">
          <mxGeometry relative="1" as="geometry" />
        </mxCell>
        <mxCell id="bonZeFb8oqKkXH8bP1l1-70" style="edgeStyle=orthogonalEdgeStyle;rounded=0;orthogonalLoop=1;jettySize=auto;html=1;exitX=0.095;exitY=0.5;exitDx=0;exitDy=0;exitPerimeter=0;entryX=0.5;entryY=0;entryDx=0;entryDy=0;" edge="1" parent="1" source="3" target="bonZeFb8oqKkXH8bP1l1-67">
          <mxGeometry relative="1" as="geometry" />
        </mxCell>
        <mxCell id="3" value="Input distance&lt;br&gt;from Keypad&lt;br&gt;abc" style="shape=mxgraph.flowchart.data;strokeWidth=2;gradientColor=none;gradientDirection=north;fontStyle=0;html=1;" parent="1" vertex="1">
          <mxGeometry x="240.5" y="130" width="159" height="80" as="geometry" />
        </mxCell>
        <mxCell id="7" style="fontStyle=1;strokeColor=#003366;strokeWidth=1;html=1;" parent="1" source="2" target="3" edge="1">
          <mxGeometry relative="1" as="geometry" />
        </mxCell>
        <mxCell id="bonZeFb8oqKkXH8bP1l1-65" style="edgeStyle=orthogonalEdgeStyle;rounded=0;orthogonalLoop=1;jettySize=auto;html=1;exitX=1;exitY=0.5;exitDx=0;exitDy=0;" edge="1" parent="1" source="bonZeFb8oqKkXH8bP1l1-56">
          <mxGeometry relative="1" as="geometry">
            <mxPoint x="320" y="110" as="targetPoint" />
            <Array as="points">
              <mxPoint x="480" y="305" />
              <mxPoint x="480" y="110" />
            </Array>
          </mxGeometry>
        </mxCell>
        <mxCell id="bonZeFb8oqKkXH8bP1l1-72" style="edgeStyle=orthogonalEdgeStyle;rounded=0;orthogonalLoop=1;jettySize=auto;html=1;exitX=0.5;exitY=1;exitDx=0;exitDy=0;entryX=0.5;entryY=0;entryDx=0;entryDy=0;" edge="1" parent="1" source="bonZeFb8oqKkXH8bP1l1-56" target="bonZeFb8oqKkXH8bP1l1-71">
          <mxGeometry relative="1" as="geometry" />
        </mxCell>
        <mxCell id="bonZeFb8oqKkXH8bP1l1-56" value="* #" style="rhombus;whiteSpace=wrap;html=1;" vertex="1" parent="1">
          <mxGeometry x="280" y="270" width="80" height="70" as="geometry" />
        </mxCell>
        <mxCell id="bonZeFb8oqKkXH8bP1l1-61" value="*" style="text;html=1;strokeColor=none;fillColor=none;align=center;verticalAlign=middle;whiteSpace=wrap;rounded=0;" vertex="1" parent="1">
          <mxGeometry x="380" y="270" width="60" height="30" as="geometry" />
        </mxCell>
        <mxCell id="bonZeFb8oqKkXH8bP1l1-67" value="print to LCD" style="shape=process;whiteSpace=wrap;html=1;backgroundOutline=1;" vertex="1" parent="1">
          <mxGeometry x="90" y="275" width="120" height="60" as="geometry" />
        </mxCell>
        <mxCell id="bonZeFb8oqKkXH8bP1l1-78" style="edgeStyle=orthogonalEdgeStyle;rounded=0;orthogonalLoop=1;jettySize=auto;html=1;" edge="1" parent="1" source="bonZeFb8oqKkXH8bP1l1-71">
          <mxGeometry relative="1" as="geometry">
            <mxPoint x="150" y="340" as="targetPoint" />
          </mxGeometry>
        </mxCell>
        <mxCell id="bonZeFb8oqKkXH8bP1l1-81" value="" style="edgeStyle=orthogonalEdgeStyle;rounded=0;orthogonalLoop=1;jettySize=auto;html=1;" edge="1" parent="1" source="bonZeFb8oqKkXH8bP1l1-71" target="bonZeFb8oqKkXH8bP1l1-80">
          <mxGeometry relative="1" as="geometry" />
        </mxCell>
        <mxCell id="bonZeFb8oqKkXH8bP1l1-71" value="step =&lt;br&gt;(abc / lead screw&#39;s pitch)&lt;br&gt;*&lt;br&gt;((gear ratio) *microStep * 360)/angleStep)" style="shape=process;whiteSpace=wrap;html=1;backgroundOutline=1;" vertex="1" parent="1">
          <mxGeometry x="176.4" y="400" width="287.19" height="70" as="geometry" />
        </mxCell>
        <mxCell id="bonZeFb8oqKkXH8bP1l1-73" value="#" style="text;html=1;strokeColor=none;fillColor=none;align=center;verticalAlign=middle;whiteSpace=wrap;rounded=0;" vertex="1" parent="1">
          <mxGeometry x="320" y="350" width="60" height="30" as="geometry" />
        </mxCell>
        <mxCell id="bonZeFb8oqKkXH8bP1l1-75" value="end" style="shape=mxgraph.flowchart.terminator;strokeWidth=2;gradientColor=none;gradientDirection=north;fontStyle=0;html=1;" vertex="1" parent="1">
          <mxGeometry x="259.99" y="600" width="120" height="30" as="geometry" />
        </mxCell>
        <mxCell id="bonZeFb8oqKkXH8bP1l1-82" style="edgeStyle=orthogonalEdgeStyle;rounded=0;orthogonalLoop=1;jettySize=auto;html=1;entryX=0.5;entryY=0;entryDx=0;entryDy=0;entryPerimeter=0;" edge="1" parent="1" source="bonZeFb8oqKkXH8bP1l1-80" target="bonZeFb8oqKkXH8bP1l1-75">
          <mxGeometry relative="1" as="geometry" />
        </mxCell>
        <mxCell id="bonZeFb8oqKkXH8bP1l1-80" value="PWM to stepper" style="whiteSpace=wrap;html=1;" vertex="1" parent="1">
          <mxGeometry x="259.995" y="500" width="120" height="60" as="geometry" />
        </mxCell>
      </root>
    </mxGraphModel>
  </diagram>
</mxfile>
